<svg width="118" height="119" viewBox="0 0 118 119" fill="none" xmlns="http://www.w3.org/2000/svg">
<path d="M23.0489 95.6562C34.6489 107.256 51.2155 110.156 58.0489 110.156C57.9532 110.156 57.8076 110.407 56.5 110.5C55.0738 110.602 53.1282 110.5 51.5 110.5C50.5044 110.5 47.4893 110.175 46.5 110C44.6071 109.665 42.8623 108.985 41.5488 108.656C39.5488 108.156 32.5488 105.656 28.0488 103.156C26.0849 102.065 22.7638 100.028 20 97.5C16.4311 94.2354 13.4577 90.3469 12.0488 88.6562C9.54883 85.6562 4.54883 76.6562 2.54883 70.6562C0.948828 65.8562 0.215514 58.3229 0.0488566 55.1562C-0.11781 54.4895 0.0488567 50.7562 2.04886 41.1562C4.04886 31.5562 11.2155 21.8229 14.5489 18.1562C19.5489 12.8229 31.1376 4.89824 41 2.53125C53.5 -0.46875 55 0.03125 57.5 0.03125C59.5 0.03125 59.7155 3.32286 59.5489 4.65619C59.5489 5.98953 59.0489 8.65619 57.0489 8.65619C54.5489 8.65619 38.0489 10.6562 23.0489 23.6562C8.04886 36.6562 7.54886 54.6562 7.54886 59.6562C7.54886 64.6562 8.54886 81.1562 23.0489 95.6562Z" fill="#BF0101"/>
<path d="M94.5449 22.889C82.9449 11.289 66.3782 8.38897 59.5449 8.38897C59.6406 8.38916 59.7861 8.13847 61.0938 8.04516C62.52 7.94339 64.4656 8.04516 66.0938 8.04516C67.0894 8.04516 70.1044 8.37018 71.0938 8.54516C72.9866 8.87996 74.7314 9.5606 76.0449 9.88897C78.0449 10.389 85.0449 12.889 89.5449 15.389C91.5089 16.4801 94.83 18.517 97.5938 21.0452C101.163 24.3097 104.136 28.1983 105.545 29.889C108.045 32.889 113.045 41.889 115.045 47.889C116.645 52.689 117.378 60.2223 117.545 63.389C117.712 64.0556 117.545 67.789 115.545 77.389C113.545 86.989 106.378 96.7223 103.045 100.389C98.0449 105.722 86.4562 113.647 76.5938 116.014C64.0937 119.014 62.5938 118.514 60.0938 118.514C58.0938 118.514 57.8782 115.222 58.0449 113.889C58.0449 112.556 58.5449 109.889 60.5449 109.889C63.0449 109.889 79.5449 107.889 94.5449 94.889C109.545 81.889 110.045 63.889 110.045 58.889C110.045 53.889 109.045 37.389 94.5449 22.889Z" fill="#183B61"/>
<path d="M66.4282 67.6122C68.0231 65.9128 68.9999 63.6266 68.9999 61.1122C68.9999 58.0636 67.564 55.3505 65.3316 53.6122M66.4282 67.6122L86.9999 87.6122C93.6666 83.4455 104.1 71.4122 92.4999 56.6122C81.6999 45.8122 69.8877 50.1122 65.3316 53.6122M66.4282 67.6122C65.36 68.7502 64.0147 69.625 62.5 70.1287M65.3316 53.6122C64.2243 52.75 62.9211 52.1276 61.5 51.8231M50.1177 59.6122C50.0402 60.1008 49.9999 60.6018 49.9999 61.1122C49.9999 61.9774 50.1156 62.8156 50.3323 63.6122M50.1177 59.6122C50.8368 55.0782 54.7636 51.6122 59.4999 51.6122C60.186 51.6122 60.8552 51.6849 61.5 51.8231M50.1177 59.6122C45.4118 57.7788 36.2999 51.0122 37.4999 38.6122C37.9999 35.7788 40.2 29.1122 45 25.1122C56.2 17.9122 65.3333 21.7788 68.5 24.6122L61.5 51.8231M50.3323 63.6122C51.4298 67.646 55.1184 70.6122 59.4999 70.6122C60.5483 70.6122 61.557 70.4423 62.5 70.1287M50.3323 63.6122L21.5 72.1122C21.8333 78.9455 27.1 92.6122 45.5 92.6122C51.9 91.8122 56.8333 86.9455 58.5 84.6122C62.9 79.8122 63.1667 72.9565 62.5 70.1287" stroke="#4E5059" stroke-width="4"/>
</svg>
